<svg xmlns="http://www.w3.org/2000/svg" width="154.563" height="58.351" viewBox="0 0 154.563 58.351"><defs><style>.a{fill:#fff;fill-rule:evenodd;}</style></defs><path class="a" d="M138.916,12.881h.5l1.2,3.623,1.207-3.623h.466V17h-.325V13.288h-.01L140.762,17h-.278l-1.235-3.712h-.008V17h-.326Zm-1.8.358h-.984v-.354h2.3v.354h-.985V17h-.33Zm4.547,12.832h.6V34.92h-.6Zm-2.505.236h.6V27.3h-.6Zm0,2.6h.6V34.92h-.6Zm-1.452.8a2.345,2.345,0,0,0-1.041-.306c-1.177,0-1.836,1.05-1.836,2.513,0,1.369.67,2.513,1.769,2.513a2.627,2.627,0,0,0,1.1-.271l.057.7a2.991,2.991,0,0,1-1.253.212c-1.568,0-2.332-1.475-2.332-3.151,0-1.852.966-3.15,2.408-3.15a3.055,3.055,0,0,1,1.177.235Zm-8.869.614c0-.46,0-.932-.038-1.416h.583v1.074h.019a1.585,1.585,0,0,1,1.577-1.215c1.2,0,1.663.991,1.663,2.312V34.92h-.6V31.263c0-1.133-.325-1.864-1.157-1.864-1.1,0-1.444,1.192-1.444,2.194V34.92h-.6ZM126.94,33.5c0,.459,0,.932.037,1.415H126.4V33.846h-.02a1.584,1.584,0,0,1-1.576,1.216c-1.2,0-1.664-.992-1.664-2.313V28.9h.6V32.56c0,1.132.324,1.864,1.157,1.864,1.1,0,1.444-1.191,1.444-2.194V28.9h.6Zm-7.6-4.743c1.577,0,2.276,1.51,2.276,3.15s-.7,3.151-2.276,3.151-2.275-1.51-2.275-3.151S117.763,28.762,119.341,28.762Zm0,5.663c1.052,0,1.616-1.121,1.616-2.513s-.564-2.513-1.616-2.513-1.616,1.12-1.616,2.513S118.289,34.425,119.341,34.425Zm-4.013-6.82a2.9,2.9,0,0,0-1.492-.354c-1.73,0-2.705,1.51-2.705,3.552,0,2.076.947,3.551,2.705,3.551A2.77,2.77,0,0,0,115.327,34l.037.708a3.009,3.009,0,0,1-1.529.354c-2.1,0-3.365-1.711-3.365-4.259,0-2.5,1.3-4.259,3.365-4.259a3.572,3.572,0,0,1,1.529.306Zm-12.159,6.443a2.44,2.44,0,0,0,1.271.377,1.035,1.035,0,0,0,1.08-1.074c0-1.428-2.342-1.2-2.342-2.95a1.49,1.49,0,0,1,1.586-1.64,3.19,3.19,0,0,1,1.2.271l-.057.649a2.4,2.4,0,0,0-1.08-.283c-.621,0-1.051.236-1.051,1,0,1.121,2.4.979,2.4,2.95a1.619,1.619,0,0,1-1.7,1.711,3.049,3.049,0,0,1-1.367-.284Zm-1.462.873h-.6v-.956h-.019a1.547,1.547,0,0,1-1.52,1.1c-1.338,0-2.008-1.369-2.008-3.151,0-1.829.574-3.15,2.008-3.15a1.685,1.685,0,0,1,1.52,1.156h.019V26.071h.6Zm-2.046-.5c1.071,0,1.444-1.416,1.444-2.513s-.373-2.513-1.444-2.513c-1.147,0-1.443,1.345-1.443,2.513S98.514,34.425,99.661,34.425ZM94.45,30.248a13.284,13.284,0,0,0-.038-1.345h.6v1.156h.019c.22-.672.631-1.3,1.252-1.3a1.48,1.48,0,0,1,.421.07v.779a1.3,1.3,0,0,0-.44-.071c-.956,0-1.214,1.322-1.214,2.407V34.92h-.6Zm-2.361,3.7H92.07a1.694,1.694,0,0,1-1.549,1.109,1.551,1.551,0,0,1-1.606-1.7c0-2.017,1.74-2.112,3-2.112h.115v-.307c0-1.027-.3-1.545-1.109-1.545a2.235,2.235,0,0,0-1.434.5v-.72a3.254,3.254,0,0,1,1.434-.413c1.2,0,1.711.672,1.711,2.241v2.655a10.557,10.557,0,0,0,.048,1.262h-.593Zm-.057-2.065H91.86c-1.042,0-2.285.13-2.285,1.451a.95.95,0,0,0,1.013,1.086c1.415,0,1.443-1.522,1.443-2.17ZM87.454,34.92h-.6v-.956h-.019a1.547,1.547,0,0,1-1.52,1.1c-1.338,0-2.007-1.369-2.007-3.151,0-1.829.574-3.15,2.007-3.15a1.684,1.684,0,0,1,1.52,1.156h.019V26.071h.6Zm-2.045-.5c1.07,0,1.443-1.416,1.443-2.513S86.478,29.4,85.408,29.4c-1.147,0-1.444,1.345-1.444,2.513S84.261,34.425,85.408,34.425Zm-7.513-4.106c0-.46,0-.932-.038-1.416h.584v1.074h.019a1.585,1.585,0,0,1,1.577-1.215c1.2,0,1.663.991,1.663,2.312V34.92h-.6V31.263c0-1.133-.325-1.864-1.157-1.864-1.1,0-1.443,1.192-1.443,2.194V34.92h-.6Zm-2.361,3.634h-.019a1.694,1.694,0,0,1-1.548,1.109,1.551,1.551,0,0,1-1.606-1.7c0-2.017,1.739-2.112,3-2.112h.115v-.307c0-1.027-.3-1.545-1.109-1.545a2.236,2.236,0,0,0-1.434.5v-.72a3.255,3.255,0,0,1,1.434-.413c1.2,0,1.711.672,1.711,2.241v2.655a10.554,10.554,0,0,0,.048,1.262h-.593Zm-.057-2.065h-.172c-1.042,0-2.285.13-2.285,1.451a.95.95,0,0,0,1.013,1.086c1.415,0,1.443-1.522,1.443-2.17ZM71.271,29.54H70.162v3.893c0,.543.163.991.65.991a1.173,1.173,0,0,0,.555-.142l.038.614a1.842,1.842,0,0,1-.736.165c-1.071,0-1.109-.909-1.109-2.006V29.54H68.6V28.9h.956V27.452l.6-.26V28.9h1.109ZM63.892,33.87a2.268,2.268,0,0,0,1.472.483,1.474,1.474,0,0,0,1.5-1.687c0-1.616-3.059-1.817-3.059-3.976a2.043,2.043,0,0,1,2.112-2.147,3.3,3.3,0,0,1,1.309.271l-.1.743a2.291,2.291,0,0,0-1.214-.307,1.325,1.325,0,0,0-1.444,1.416c0,1.652,3.059,1.664,3.059,4.071a2.135,2.135,0,0,1-2.189,2.324,3.191,3.191,0,0,1-1.511-.354ZM95.74,22.335c-.23.826-.574,1.651-1.252,1.651a2.35,2.35,0,0,1-.65-.094l.057-.636a1.031,1.031,0,0,0,.449.094c.516,0,.688-.53.88-1.309l.124-.531L93.618,15.42h.66l1.367,5.026-.01-.013h.019l1.405-5.014h.63Zm-2.916-6.277H91.716v3.893c0,.543.163.991.65.991a1.172,1.172,0,0,0,.555-.142l.038.614a1.833,1.833,0,0,1-.736.165c-1.071,0-1.109-.908-1.109-2.006V16.058h-.956V15.42h.956V13.969l.6-.259V15.42h1.109Zm-4.607-3.233h.6v.991h-.6Zm0,2.6h.6v6.018h-.6Zm-3.565,1.345a13.287,13.287,0,0,0-.038-1.345h.6v1.156h.019c.22-.673.631-1.3,1.252-1.3a1.478,1.478,0,0,1,.421.071v.779a1.3,1.3,0,0,0-.44-.071c-.956,0-1.214,1.321-1.214,2.407v2.973h-.6ZM82.76,20.022c0,.46,0,.932.038,1.416h-.583V20.364H82.2a1.585,1.585,0,0,1-1.577,1.215c-1.2,0-1.663-.991-1.663-2.312V15.42h.6v3.658c0,1.132.325,1.864,1.157,1.864,1.1,0,1.444-1.192,1.444-2.194V15.42h.6Zm-5.257-3.8a2.349,2.349,0,0,0-1.042-.306c-1.176,0-1.835,1.05-1.835,2.513,0,1.369.669,2.513,1.769,2.513a2.626,2.626,0,0,0,1.1-.271l.057.7a2.978,2.978,0,0,1-1.252.212c-1.568,0-2.332-1.475-2.332-3.15,0-1.852.966-3.15,2.409-3.15a3.03,3.03,0,0,1,1.176.236Zm-5.066,5.026a3.345,3.345,0,0,1-1.415.33c-1.615,0-2.218-1.345-2.218-3.15,0-1.841.822-3.15,2.055-3.15,1.376,0,1.94,1.369,1.94,2.985v.378H69.465c0,1.274.555,2.3,1.606,2.3a2.687,2.687,0,0,0,1.367-.449ZM72.141,18H69.465c0-.991.545-2.088,1.434-2.088S72.141,16.954,72.141,18Zm-8.249,2.384a2.268,2.268,0,0,0,1.472.483,1.474,1.474,0,0,0,1.5-1.687c0-1.617-3.059-1.817-3.059-3.976a2.043,2.043,0,0,1,2.112-2.148,3.3,3.3,0,0,1,1.309.271l-.1.743a2.3,2.3,0,0,0-1.214-.306,1.325,1.325,0,0,0-1.444,1.416c0,1.652,3.059,1.664,3.059,4.071a2.134,2.134,0,0,1-2.189,2.324,3.191,3.191,0,0,1-1.511-.354Z" transform="translate(12.27 6.048)"/><path class="a" d="M57.42,0,70.812,36.563,16.029,58.351,0,4.508,57.42,0m-4.9,18.214H59.45V41.462H52.519ZM60.006,11.3c0,2.821-1.853,5.108-4.138,5.108s-4.139-2.287-4.139-5.108S53.582,6.2,55.868,6.2s4.138,2.287,4.138,5.108M49,25.488c-1.255-1.665-3.292-2.033-5.393-2.033-3.762,0-5.447,2.837-5.447,6.445,0,3.67,1.716,6.321,5.541,6.321,2.006,0,4.013-.115,5.3-1.626V41a17.662,17.662,0,0,1-5.424,1.079A13.281,13.281,0,0,1,34.7,38.656a11.279,11.279,0,0,1-3.794-8.787,12.058,12.058,0,0,1,3.481-8.51,12.917,12.917,0,0,1,9-3.762A14.631,14.631,0,0,1,49,18.769v6.72M10.785,18.214h9.721c4.984,0,8.429,2.313,8.429,7.647,0,5.488-2.954,7.893-8.214,7.893H17.307v7.708H10.785V18.214ZM17.8,28.882h1.015c2.185,0,3.6,0,3.676-2.837.057-2.131-1.338-2.96-3.676-2.96H17.8v5.8Z" transform="translate(0 0)"/></svg>